<?xml version="1.0" standalone="no"?>
<!DOCTYPE svg PUBLIC "-//W3C//DTD SVG 1.1//EN" "http://www.w3.org/Graphics/SVG/1.1/DTD/svg11.dtd" >
<svg xmlns="http://www.w3.org/2000/svg">
<metadata>Generated by IcoMoon</metadata>
<defs>
<font id="icomoon" horiz-adv-x="1024">
<font-face units-per-em="1024" ascent="960" descent="-64" />
<missing-glyph horiz-adv-x="1024" />
<glyph unicode="&#x20;" d="" horiz-adv-x="512" />
<glyph unicode="&#xe600;" d="M880.711 483.636c0 0-84.737 180.22-106.332 221.819-21.569 41.573-55.448 46.19-55.448 46.19h-389.703c0 0-33.879-4.616-55.448-46.19-21.595-41.599-106.332-221.819-106.332-221.819s-12.31-24.647-12.31-92.457c0-67.785 0-67.785 0-67.785s9.233-52.345 46.216-70.862v-89.353c0 0 7.694-30.776 27.724-30.776s69.323 0 69.323 0 24.621 3.052 24.621 27.699c0 24.647 0 83.224 0 83.224h402.116c0 0 0-58.577 0-83.224s24.621-27.699 24.621-27.699 49.268 0 69.298 0 27.724 30.776 27.724 30.776v89.353c37.008 18.517 46.241 70.862 46.241 70.862s0 0 0 67.785c0.026 67.785-12.31 92.457-12.31 92.457zM293.040 318.804c-31.93 0-57.782 25.852-57.782 57.782 0 31.905 25.852 57.757 57.782 57.757 31.879 0 57.757-25.852 57.757-57.757 0-31.93-25.878-57.782-57.757-57.782zM752.118 318.804c-31.879 0-57.808 25.852-57.808 57.782 0 31.905 25.929 57.757 57.808 57.757s57.782-25.852 57.782-57.757c0-31.93-25.903-57.782-57.782-57.782zM805.233 512.874h-559.229c-60.065-4.591 38.727 152.598 53.371 180.861 13.362 25.57 30.981 31.135 35.752 32.52h380.958c4.822-1.385 22.364-6.95 35.777-32.52 14.67-28.237 113.41-185.426 53.371-180.861z" horiz-adv-x="1025" />
<glyph unicode="&#xe601;" d="M805.874 510.232h-238.823c-7.13 0-11.669-5.694-10.028-12.644l44.574-187.812c1.641-6.95 8.899-12.67 16.029-12.67h137.595c7.053 0 14.337 5.694 15.952 12.67l44.651 187.812c1.667 6.95-2.821 12.644-9.951 12.644zM541.25 627.079v-88.174c0-7.155 5.873-13.029 13.003-13.029h264.367c7.155 0 13.029 5.873 13.029 13.054v88.174l-290.399-0.026zM622.704 770.034c0 7.694-7.797 13.926-17.44 13.926-9.694 0-17.645-6.232-17.645-13.926v-126.644h35.059v126.644zM790.024 770.034c0 7.694-7.822 13.926-17.465 13.926-9.72 0-17.568-6.232-17.568-13.926v-126.644h35.008v126.644zM457.693 147.022c-137.159 0-198.763 108.153-198.763 241.542v26.16h-42.369v-23.954c0-160.549 80.608-290.655 241.131-290.655 121.976 0 211.073 75.222 254.185 181.733h-46.805c-40.522-79.839-109.64-134.825-207.38-134.825z" horiz-adv-x="1025" />
<glyph unicode="&#xe602;" d="M887.123 503.461c-17.389 24.005-182.297 230.052-182.297 230.052-17.953 17.953-39.188 26.416-60.321 25.929-0.359 0.026-0.769-0.026-1.128 0-0.41-0.026-0.821 0.026-1.18 0-21.107 0.487-42.369-7.976-60.321-25.929 0 0-164.935-206.046-182.272-230.052-19.030-26.339-22.877-42.086-20.979-69.528 1.949-27.468 27.929-48.447 52.525-48.447h424.429c24.595 0 50.627 20.979 52.55 48.447 1.872 27.468-1.949 43.189-21.005 69.528zM578.207 446.5h-93.662v61.322h93.662v-61.322zM673.998 574.246h-61.296v93.662h61.296v-93.662zM802.155 446.5h-93.688v61.322h93.688v-61.322zM573.103 371.534h140.519v-64.707h-140.519v64.707zM623.063 295.773c-38.188-75.171-117.565-126.977-209.611-126.977-129.183 0-233.899 101.869-233.899 227.513v24.621h-39.906v-22.569c0-151.214 122.617-273.78 273.805-273.78 114.898 0 213.125 70.836 253.724 171.192h-44.113z" horiz-adv-x="1025" />
<glyph unicode="&#xe603;" d="M840.677 578.529c-4.975 1.488-10.182 2.18-15.080 2.18-28.853-0.795-46.677-20.261-59.167-35.649-0.692-0.898-1.308-1.77-1.949-2.667-33.751 39.163-80.608 62.373-124.618 75.53 4.463 10.515 6.95 22.031 6.95 34.162 0 48.344-39.24 87.456-87.558 87.456-6.643 0-13.054-0.872-19.261-2.283-6.95 31.392-34.854 54.833-68.272 54.833-38.65 0-69.99-31.366-69.99-70.041 0-38.65 31.366-69.964 69.99-69.964 0-11.9 2.411-23.159 6.694-33.443-60.167-21.748-114.128-59.398-114.128-59.398-23.287 31.058-77.735 27.211-77.735 27.211l19.389-66.066c-15.491-7.797-54.371-77.787-69.964-93.406-15.568-15.516-54.499-27.237-54.499-27.237-19.389-23.339-3.847-58.295-3.847-58.295 38.829-7.797 89.456-66.169 132.235-89.482 11.669-6.386 26.185-14.183 42.779-22.133v-121.797c0 0 19.44-19.44 73.94-15.568l41.676 100.818c18.876-2.77 38.624-4.411 59.398-3.565 17.209 0.641 37.188 2.539 58.398 5.95l42.702-103.203c54.474-3.873 73.914 15.568 73.914 15.568v124.72c60.398 31.853 108.922 85.609 108.922 174.757 0 39.47-8.848 71.914-22.903 99.022 8.387 15.055 28.647 36.444 36.88 33.905 1.103 0 2.154-0.103 3.462-0.462 6.848-2.693 6.335-3.924 7.13-8.463 0.026-2.719-1.231-5.899-2.539-7.489-1.564-1.667-1.898-1.667-2.898-1.744-0.513 0-1.564 0.128-3.257 0.846l-16.337-36.778c6.232-2.796 12.798-4.309 19.312-4.309 0.128 0 0.231 0 0.282 0 29.699 0.846 45.626 26.468 45.651 49.473 0.795 18.671-12.31 40.573-35.7 47.011zM485.494 550.574l-10.156 22.441 40.778 3.334c12.823-7.335 27.442-11.798 43.189-11.798 20.953 0 39.932 7.668 55.012 19.902l23.877 1.949 17.953-19.004-170.654-16.824z" horiz-adv-x="1025" />
<glyph unicode="&#xe604;" d="M655.84 635.363l-3.744 50.704c-0.231 1.513-1.308 14.080-9.207 28.622-7.617 14.414-23.928 31.007-50.422 34.957l-115.564 24.672-6.437-30.161 116.949-24.929c16.337-2.693 23.364-10.72 28.391-19.415 2.411-4.283 3.796-8.669 4.642-11.849 0.41-1.59 0.616-2.847 0.769-3.642 0.103-0.821 0.103-0.821 0.103-0.821l3.565-48.165h-66.451l69.118-522.964h215.177l53.499 522.964h-240.387zM361.466 286.156h0.205l198.147 1.077v29.417c0 0-8.335 125.875-198.147 126.080-0.051 0-0.103 0-0.205 0-0.077 0-0.128 0-0.205 0-189.786-0.205-196.403-126.080-196.403-126.080v-29.417l196.608-1.077zM362.569 217.602h-0.539l-1.154-0.026-195.147-1.077c0-2.77 0-5.95 0-9.9 0-45.087 4.873-96.817 196.121-96.894 0.051 0 0.103 0 0.154 0s0.103 0 0.103 0c0.051 0 0.103 0 0.205 0 0.026 0 0.051 0 0.103 0s0.103 0 0.154 0 0.103 0 0.128 0c191.274 0.077 196.147 51.832 196.147 96.894 0 3.95 0 7.13 0 9.9l-196.275 1.103zM550.124 273.615h-375.7c-12.413 0-22.492-10.079-22.492-22.467s10.079-22.441 22.492-22.441h375.7c12.387 0 22.441 10.079 22.441 22.441 0 12.413-10.054 22.467-22.441 22.467z" horiz-adv-x="1025" />
<glyph unicode="&#xe605;" d="M614.754 682.066h-423.198c-15.029 0-27.211-12.182-27.211-27.186v-323.432c0-15.029 12.182-27.211 27.211-27.211h7.386c10.695 44.215 50.601 77.069 98.099 77.069s87.379-32.854 98.073-77.069h219.614c15.003 0 27.186 12.182 27.186 27.211v323.432c0.026 15.003-12.157 27.186-27.16 27.186zM296.605 357.48c-42.574 0-77.094-34.521-77.094-77.094 0-42.574 34.521-77.069 77.094-77.069s77.069 34.495 77.069 77.069c0 42.574-34.495 77.094-77.069 77.094zM296.99 243.3c-21.056 0-38.137 17.081-38.137 38.137 0 21.082 17.081 38.188 38.137 38.188s38.137-17.106 38.137-38.188c0-21.056-17.081-38.137-38.137-38.137zM740.064 356.12c-42.522 0-77.094-34.521-77.094-77.094 0-42.548 34.572-77.043 77.094-77.043 42.574 0 77.094 34.495 77.094 77.043 0 42.574-34.521 77.094-77.094 77.094zM740.475 241.992c-21.030 0-38.162 17.055-38.162 38.137 0 21.056 17.132 38.188 38.162 38.188 21.082 0 38.137-17.106 38.137-38.188 0-21.082-17.055-38.137-38.137-38.137zM883.763 323.882c0 0 0 61.988 0 89.174s-7.566 55.936-7.566 55.936-19.697 46.857-39.317 75.555c-19.62 28.673-43.83 27.186-43.83 27.186h-120.873v-219.152c0 0 40.83 43.856 104.28 21.159 55.91-19.953 63.425-69.503 63.425-69.503s18.184 0 31.802 0c13.593 0 12.080 19.645 12.080 19.645zM713.725 477.276v68.015h88.405l45.369-67.99h-133.774z" horiz-adv-x="1025" />
<glyph unicode="&#xe606;" d="M908.205 176.311c0-16.773-13.567-30.417-30.366-30.417h-73.786c-16.773 0-30.468 13.618-30.468 30.417v159.78c0 16.773 13.67 30.366 30.468 30.366h73.786c16.773 0 30.366-13.593 30.366-30.366v-159.78zM716.059 506.18h-85.147c-5.668-4.283-9.412-11.028-9.412-18.722v-42.061h103.998v42.061c-0.026 7.694-3.77 14.439-9.438 18.722zM727.574 428.213h-108.153c-7.976-5.488-13.234-14.67-13.234-25.083v-226.82c0-16.773 13.567-30.417 30.417-30.417h73.735c16.773 0 30.468 13.618 30.468 30.417v226.82c0 10.413-5.258 19.569-13.234 25.083zM714.007 522.645v87.917c0 17.542-48.934 55.756-62.706 63.886s-18.235-8.181-18.235-18.261v-133.543h80.941zM263.777 450.731c-42.215 82.454-85.096 166.14-97.022 189.453-22.441 43.856 23.595 89.43 23.595 89.43l100.382-196.044-26.955-82.839zM194.044 145.919c-44.369 20.312-65.707 82.172-47.626 138.057 15.978 49.268 57.551 77.607 97.637 69.657 22.903-4.539 24.749 9.31 31.853 30.827l116.924 360.081c0 0 52.653-37.701 37.367-84.583-9.258-28.776-46.78-144.34-79.095-243.978l11.977-23.364c10.156-20.184 14.388-33.546 36.213-25.467 38.316 14.234 83.891-7.13 107.434-53.294 26.903-52.268 15.568-116.77-25.057-143.879-40.676-27.006-94.765-6.027-122.335 45.754-20.492 38.496-9.258 67.579-29.058 105.896-2.052 3.796-4.052 7.797-6.207 12.003-1.641-4.873-3.103-9.618-4.616-14.106-13.465-40.932 2.154-67.81-11.926-109.050-18.953-55.5-68.99-84.788-113.487-64.553zM406.297 317.188c-20.697-13.824-25.493-48.472-10.618-77.299 14.721-28.853 43.574-41.137 64.168-27.442 20.748 13.747 25.493 48.447 10.72 77.299-14.824 28.801-43.548 41.112-64.271 27.442zM322.483 398.54c9.72 0.821 16.824 10.464 15.927 21.62-0.898 11.208-9.566 19.569-19.184 18.85-9.618-0.795-16.722-10.541-15.824-21.723 0.898-11.105 9.566-19.492 19.081-18.748zM267.932 228.451c9.977 30.879-0.256 64.373-22.749 74.607-22.646 10.336-49.191-6.335-59.167-37.239-9.977-30.725 0.154-64.245 22.749-74.53 22.569-10.31 49.165 6.412 59.167 37.162z" horiz-adv-x="1025" />
<glyph unicode="&#xe607;" d="M948.829 592.174c0 25.544-20.723 46.267-46.267 46.267-4.155 0-8.053-0.744-11.926-1.744 6.463 7.976 10.413 17.901 10.413 28.93 0 25.544-20.697 46.267-46.241 46.267-10.079 0-19.286-3.283-26.903-8.771-8.156 13.131-22.595 21.954-39.214 21.954-19.876 0-36.752-12.644-43.241-30.263-5.668 2.462-11.874 3.821-18.414 3.821-25.57 0-46.267-20.697-46.267-46.267 0-9.618 2.949-18.568 7.976-26.006-0.975 0.077-1.898 0.308-2.847 0.308-25.493 0-46.292-20.697-46.292-46.241 0-24.621 19.338-44.548 43.574-46.010-8.284-8.335-13.413-19.851-13.413-32.571 0-25.57 20.697-46.241 46.241-46.241 14.926 0 28.058 7.181 36.521 18.158 1.693-14.388 9.771-26.698 21.492-33.905v-58.577c-4.95 8.335-19.030 27.442-45.087 31.905-33.52 5.719-33.52 23.672-33.52 23.672s1.744-102.151 78.582-60.603v-45.42h-91.021v-30.135h17.389l9.028-141.724h158.625l8.31 141.724h17.414v30.135h-94.021v15.362c73.914-37.265 75.632 62.065 75.632 62.065s0-17.978-33.418-23.698c-22.133-3.77-35.546-18.107-42.215-27.493v75.94c23.544 0.692 42.42 18.953 44.42 42.138 7.694-5.771 17.132-9.284 27.545-9.284 25.544 0 46.241 20.697 46.241 46.267 0 13.413-5.771 25.39-14.875 33.802 25.313 0.282 45.78 20.825 45.78 46.241zM795.128 500.025c-42.702 0.103-77.274 34.674-77.325 77.376 0.051 42.702 34.623 77.299 77.325 77.402 42.753-0.077 77.402-34.7 77.428-77.402-0.026-42.702-34.674-77.274-77.428-77.376zM639.17 450.039l-269.881 266.086-269.907-266.086h83.224v-291.066h109.409v106.768c0 40.907 31.238 74.068 69.836 74.068h14.926c38.547 0 69.836-33.161 69.836-74.068v-106.768h109.435v291.066h83.121z" horiz-adv-x="1025" />
<glyph unicode="&#xe608;" d="M825.673 721.382c0 0-84.045 27.134-113-84.352-2.616-9.848-5.591-19.107-8.771-28.109 15.901-5.899 63.527-24.647 95.406-51.217 2.949 3.693 5.924 7.438 9.233 11.259 87.609 101.869 17.132 152.419 17.132 152.419zM695.926 588.429c-2.821-6.668-5.873-13.054-9.002-19.235 15.465-5.771 57.449-22.441 88.558-46.062 3.155 5.565 6.745 11.131 10.643 16.927-15.645 13.388-38.368 25.852-57.603 34.726-14.208 6.617-26.288 11.336-32.597 13.644zM676.152 549.677c-27.057-45.318-61.142-78.761-91.713-112.718-6.207 74.53-18.876 115.821-14.26 164.114-18.62 6.848-42.163 11.028-61.783 13.208-17.619 2.026-31.802 2.565-37.496 2.744-9.079-41.266-24.877-76.658-40.086-110.64-8.258 0.975-16.593 1.539-25.083 1.539-115.975 0-210.022-93.996-210.022-209.996s94.047-210.047 210.022-210.047c15.824 0 31.187 1.847 46.010 5.181 5.976-9.489 14.003-17.927 24.313-25.211 0 0 125.259-69.939 208.611 143.289 63.501 162.421 51.345 225.974 80.685 292.091-15.491 12.387-36.495 23.8-54.397 32.11-16.055 7.386-29.391 12.413-34.803 14.337zM284.192 372.945c-11.926-12.054-26.519-16.927-32.648-10.9-6.078 6.053-1.436 20.774 10.438 32.828 11.926 12.105 26.544 16.978 32.648 10.951 6.181-6.078 1.513-20.774-10.438-32.879zM338.23 445.474c-2.077 8.335 9.618 18.466 26.032 22.518 16.517 4.103 31.494 0.641 33.572-7.694 2.077-8.361-9.566-18.466-26.032-22.544-16.465-4.103-31.469-0.667-33.572 7.72zM390.319 305.57c-16.465-4.103-32.597 3.744-36.008 17.568-3.488 13.824 7.053 28.365 23.518 32.443 16.491 4.129 32.597-3.744 36.059-17.568 3.411-13.824-7.155-28.365-23.569-32.443zM578.233 642.595c-19.133 7.822-44.6 12.439-65.63 14.773-15.67 1.795-28.571 2.411-35.316 2.667-0.564-7.207-1.411-14.26-2.436-21.133 16.568-0.564 61.706-3.129 98.638-15.619 1.257 6.207 2.847 12.618 4.745 19.312zM478.39 681.989c17.132-0.564 68.195-3.283 106.716-18.414 1.641 4.411 3.283 8.951 5.232 13.567 50.858 124.387-31.982 150.059-31.982 150.059s-88.328-0.923-80.582-115.795c0.692-10.182 0.846-19.876 0.616-29.417z" horiz-adv-x="1025" />
<glyph unicode="&#xe609;" d="M523.067 704.045l20.671-43.343 75.145 69.939-30.494 28.955-64.886-54.653 0.231 0.539-65.656 54.115-30.494-28.955 75.171-69.939zM636.964 721.536l-87.994-82.301-5.488-25.083h-35.136l-5.54 24.749-88.405 83.198-296.503-105.896 45.292-130.029 159.805 59.167v-420.89h402.219v420.89l159.805-59.167 45.292 130.029-293.348 105.331zM524.067 212.78l-31.571 28.263 15.901 354.747h35.136l13.772-354.747-33.238-28.263z" horiz-adv-x="1025" />
<glyph unicode="&#xe60a;" d="M508.499 106.269h33.033v243.901l286.321 321.252h-139.057l77.992 160.164-9.848 5.283-80.557-165.448h-456.051l288.167-321.38v-243.773zM663.175 644.288l-23.826-48.96c-112.077-0.564-277.678-1.411-277.678-1.411l106.434-180.194-187.247 230.565h382.317zM776.56 644.288l-36.726-48.447c0 0-37.111-0.18-88.122-0.436l23.852 48.857h100.997zM388.677 82.059h270.83v-34.88h-270.83v34.88z" horiz-adv-x="1025" />
<glyph unicode="&#xe60b;" d="M574.822 735.949c0-153.009 0-313.455 0-313.455s42.035-4.488 43.805-47.37v-328.792c0-11.977 9.72-21.723 21.723-21.723 12.003 0 21.723 9.746 21.723 21.723v15.414 503.37 291.399c0 0-87.25 32.495-87.25-120.566zM496.009 826.714h-16.517l3.078-209.15c0.077-6.027-4.693-10.977-10.695-11.028-0.077 0-0.154 0-0.256 0-5.873 0-10.695 4.796-10.746 10.669l-3.078 209.509h-19.492l-3.078-209.509c-0.103-5.873-4.873-10.669-10.772-10.669-0.077 0-0.154 0-0.231 0-5.976 0.051-10.797 5.001-10.695 11.028l3.078 209.15h-14.285l-0.026-3.796-16.055-262.854c0 0-0.846-16.004 9.797-30.032 0.256-0.308 0.539-0.539 0.769-0.872 1.718-2.129 3.821-4.232 6.155-6.181 0.641-0.539 1.282-1.128 1.949-1.641 3.206-2.436 7.002-4.616 11.387-6.489 3.18-1.411 6.155-2.385 9.233-3.206v-465.259c0-12.003 9.72-21.723 21.723-21.723s21.723 9.72 21.723 21.723v464.361c4.975 1.077 9.618 2.411 13.516 4.206 15.311 7.13 22.595 18.568 26.057 26.442 3.898 10.054 3.642 18.671 3.642 18.671l-16.183 263.495v3.155z" horiz-adv-x="1025" />
<glyph unicode="&#xe60c;" d="M911.462 361.096c-0.718-4.822-1.564-5.309-1.564-5.309-51.063-75.684-253.98-72.837-276.549-72.144-81.403 2.565-63.886 19.953-187.247 28.263-21.543 0.231-44.369 1.154-71.708 1.924-13.978 0.333-29.109 0.59-45.549 0.744-138.724 1.257-177.219 17.568-187.581 28.109-5.027-5.463-9.746-12.849-2.283-24.339 0 0-14.926-35.11 191.017-36.931 252.595-2.257 202.558-30.186 303.376-33.341 22.569-0.692 225.461-1.795 276.473 73.888-0.026-0.026 6.155 24.698 1.616 39.137zM385.010 556.371c36.265-17.568 193.069-92.585 276.396-106.562 52.525-8.797 29.904 14.952 29.904 14.952-6.591 3.488-13.362 6.489-19.261 8.925l-8.54-7.822c-3.155-1.898-7.284-0.846-9.182 2.334-1.924 3.206-0.846 7.309 2.334 9.182l1.641 1.488c-2 0.692-3.129 1.052-3.129 1.052s-0.41 10.13-11.695 16.004c-10.695 5.514-21.030 1.949-21.030 1.949l-4.052 2.308-13.849-12.695c-3.206-1.924-7.309-0.872-9.182 2.36-1.924 3.18-0.872 7.284 2.283 9.182l8.925 8.104-7.489 4.36c0 0-3.719 11.49-13.644 16.722-9.951 5.258-21.21 1.77-21.21 1.77l-4.078 2.103-18.107-16.568c-3.206-1.898-7.335-0.872-9.207 2.334s-0.846 7.335 2.334 9.207l12.516 11.464-1.18 0.59c0 0-0.385 14.029-10.9 19.492-14.208 7.361-25.288 2.308-25.288 2.308l-4.001 2.693c-0.539-1.18-1.462-2.206-2.616-2.898l-20.056-18.312c-3.18-1.924-7.309-0.872-9.182 2.334-1.924 3.18-0.872 7.309 2.308 9.207l18.594 17.029-5.924 4.001c0 0 1 14.978-7.155 19.081-8.233 4.078-13.234 4.847-23.185-2.744l-70.093 44.395c0 0-12.234 4.668-12.234-15.773 0-20.415-5.873-20.415-5.873-27.442s15.183-29.802 15.183-29.802 1.847-4.616-1.077-6.309zM180.707 345.656l142.494 142.519 17.568-17.542-130.158-130.158c11.438-1.513 25.006-2.821 40.855-3.898l102.562 102.536 17.542-17.517-86.737-86.737c14.901-0.564 31.289-0.949 49.55-1.103 248.646-1.924 199.378-26.083 298.683-28.827 22.184-0.616 221.922-1.564 272.164 63.861 0 0 9.515 24.467-1.154 42.061-6.668 10.951-18.132 16.337-70.118 14.593-44.036-1.488-96.971 13.516-124.926 24.903 6.617-13.901 11.746-49.498-159.215 17.183-109.666 42.805-158.395 63.989-176.45 74.837-13.824-6.335-33.341-10.72-58.603-10.028-43.241 1.154-45.574 26.288-48.498 30.956-2.924 4.668-8.746 14.029-23.98 12.849 0 0-35.034 3.488-46.703-30.391-11.695-33.879-40.317-124.387-40.907-153.009 0 0-19.671-11.874-8.361-27.083 0 0-5.258-10.926 34.392-20.005z" horiz-adv-x="1025" />
<glyph unicode="&#xe60d;" d="M802.591 459.554l-275.626-90.636-254.878 81.198c0 0-20.8-22.646-22.672-77.402 0 0 160.472 7.566 285.141-143.468 0 0 177.45 162.344 288.809 141.596 0 0-3.18 31.11-8.053 50.806-5.155 20.876-12.721 37.906-12.721 37.906zM848.268 493.792l-316.251 42.369c-9.335 1.385-16.132 7.258-15.234 13.029 0.923 5.771 9.105 9.335 18.389 7.874 0 0 356.824-49.319 356.619-49.396l86.327 27.442-447.383 143.443-460.668-147.264 456.872-139.698 321.329 102.203zM901.28 350.247c0 12.208-7.232 22.646-17.619 27.468v123.207l-26.083-8.54v-115.103c-9.951-4.975-16.67-15.183-16.67-27.032 0-13.362 8.643-24.775 20.851-28.673-4.334-20.928-19.081-92.252-20.646-97.407-1.898-6.078-2.026-11.951 3.77-14.901 5.873-2.924 13.49-3.719 23.544-3.719s25.031 2.872 24.877 10.259c-0.231 11.644-10.002 85.070-12.772 105.819 11.977 3.95 20.748 15.285 20.748 28.622z" horiz-adv-x="1025" />
<glyph unicode="&#xe60e;" d="M742.398 742.618l-63.373-63.322-454.077 17.594-68.067-68.067 334.434-99.689c0 0 22.261-22.287 0-46.934-22.313-24.647-139.647-153.701-139.647-153.701l-102.049-3.565-55.166-55.141 93.867-35.213c0 0-26.442-42.548-26.955-54.756l-0.18-0.205c0.026 0 0.103 0 0.18 0-0.026-0.026-0.026-0.128-0.026-0.154l0.18 0.205c12.234 0.487 54.782 26.929 54.782 26.929l35.213-93.867 55.115 55.166 3.565 102.049c0 0 129.055 117.36 153.727 139.647 24.595 22.287 46.882 0 46.882 0l99.74-334.409 68.067 68.067-17.645 454.102 63.373 63.322c78.633 78.582 66.246 147.29 66.246 147.29s-69.58 13.285-148.187-65.348z" horiz-adv-x="1025" />
<glyph unicode="&#xe60f;" d="M833.957 216.55l-345.796 345.796c-16.568 16.645-25.16 39.753-23.313 63.194 3.411 44.369-11.874 89.995-45.856 123.951-44.164 44.189-108.101 56.705-163.421 37.598l100.484-100.51c2.36-39.24-58.27-99.894-97.535-97.586l-100.535 100.535c-19.133-55.346-6.617-119.283 37.624-163.498 33.905-33.905 79.556-49.216 123.951-45.754 23.467 1.821 46.523-6.745 63.194-23.364l345.77-345.796c29.109-29.16 76.299-29.16 105.434 0 29.109 29.135 29.109 76.325 0 105.434zM777.611 137.661c-16.978 0-30.699 13.772-30.699 30.699 0 17.004 13.721 30.751 30.699 30.751s30.699-13.747 30.699-30.751c0-16.927-13.721-30.699-30.699-30.699zM561.203 565.732l178.271 178.271c36.521 36.47 95.637 36.47 132.081 0 36.418-36.444 36.418-95.56 0-132.004l-178.322-178.322-32.315 32.366 170.167 170.192c5.258 5.258 5.258 13.772 0 19.056-5.258 5.258-13.772 5.258-19.030 0l-170.167-170.218-27.75 27.673 170.269 170.192c5.258 5.258 5.258 13.772 0 19.030-5.258 5.232-13.721 5.232-19.030 0l-170.192-170.218-33.982 33.982zM467.541 295.696l-131.568-131.568c-7.13-7.13-13.157-15.337-17.825-24.262l-9.438-18.081-65.579-33.52-25.955 25.929 32.11 66.989 18.055 9.412c9.053 4.693 17.158 10.695 24.262 17.825l131.619 131.568 44.318-44.292z" horiz-adv-x="1025" />
<glyph unicode="&#xe610;" d="M889.021 242.967c-1.385 20.876-18.466 41.086-46.934 48.165-46.6 11.644-168.961 42.343-168.961 42.343-27.16 9.874-62.219 29.417-79.89 57.398-25.698 40.419-161.806 200.866-199.558 242.644-37.726 41.779-123.361 130.927-135.595 140.237-3.206 2.411-24.211 3.796-32.033-6.643s-49.806-87.379-57.731-111.41c-6.027-18.312-24.698-52.704 14.311-109.281-0.103 0-0.154 0-0.308 0 0 0 49.55-102.433 59.962-157.164 10.259-53.679 29.083-131.568 23.621-223.409h40.137c0 167.73 15.26 188.581 15.26 188.581 12.259-15.311 15.696-25.698 20.723-37.137 22.133-50.858 39.368-138.211 58.962-173.424 19.543-35.213 70.477-33.956 125.541-35.213 62.322-1.436 137.621 17.491 177.117 23.467 38.778 5.847 149.444 31.315 169.038 39.111 19.543 7.797 16.593 20.851 16.593 20.851s1 30.032-0.256 50.883zM622.294 323.6c-3.667-0.718-8.258-1.872-13.67-3.206-18.979-4.693-50.755-12.593-83.891-12.593-33.213 0-60.834 7.951-82.018 23.646-50.96 37.726-94.355 173.526-115.129 238.797-5.258 16.337-9.31 29.263-12.644 38.086-5.745 15.542-15.080 34.136-24.954 53.833-13.259 26.57-32.033 63.989-35.803 86.789 29.289-27.827 96.483-92.585 127.183-126.593 37.316-41.343 172.808-200.994 197.763-240.413 14.619-23.056 39.624-41.266 64.117-53.704-7.617-1.77-14.926-3.437-20.953-4.642z" horiz-adv-x="1025" />
<glyph unicode="&#xe611;" d="M741.783 438.549c0-119.023-96.487-215.51-215.51-215.51s-215.51 96.487-215.51 215.51c0 119.023 96.487 215.51 215.51 215.51 119.023 0 215.51-96.487 215.51-215.51zM800.745 444.166c0.539 31.853 38.881 58.654 93.047 69.452-0.051 0.051-0.051 0.077-0.103 0.103-55.91-8.156-102.869 4.36-115.129 34.649-11.977 29.494 12.644 67.631 58.039 96.791-48.113-26.185-95.714-30.52-118.54-7.002-20.364 20.902-15.696 58.526 7.694 97.048-32.854-33.802-70.734-49.55-98.304-36.752-28.827 13.311-38.393 54.192-28.34 102.151-15.875-45.395-44.292-76.043-74.991-77.376-30.725 1.334-59.142 31.982-75.043 77.376 10.079-47.96 0.513-88.841-28.314-102.151-27.57-12.823-65.451 2.949-98.33 36.752 23.416-38.521 28.058-76.145 7.72-97.048-22.826-23.518-70.426-19.184-118.54 7.002 45.42-29.16 70.041-67.297 58.013-96.791-12.234-30.289-59.193-42.805-115.103-34.649-0.051-0.026-0.051-0.051-0.103-0.103 54.166-10.797 92.482-37.598 93.047-69.452 0.513-31.751-36.495-59.552-89.841-72.196 53.602 8.515 98.766-2.616 111.666-31.571 13.644-30.776-12.952-72.119-62.040-103.331 0.154-0.103 0.205-0.333 0.385-0.513 48.293 30.032 97.714 37.137 122.13 13.901 25.108-23.775 16.517-72.119-17.132-118.719 0.103-0.026 0.154-0.103 0.205-0.154 33.033 45.703 76.479 70.324 108.64 57.321 30.468-12.362 42.215-54.91 33.161-105.434 12.977 45.959 39.163 78.223 69.426 81.582 30.263-3.36 56.449-35.649 69.426-81.582-9.053 50.524 2.719 93.072 33.187 105.434 32.161 13.003 75.581-11.618 108.64-57.321 0.077 0.051 0.103 0.128 0.18 0.154-33.649 46.6-42.215 94.944-17.132 118.719 24.467 23.236 73.863 16.132 122.181-13.901 0.128 0.18 0.231 0.41 0.385 0.513-49.139 31.187-75.761 72.555-62.040 103.331 12.926 28.955 58.064 40.086 111.692 31.571-53.371 12.644-90.354 40.445-89.841 72.196zM719.803 283.36c-85.686-106.87-241.824-124.054-348.694-38.316-106.87 85.686-124.028 241.798-38.316 348.668 85.635 106.87 241.772 124.054 348.643 38.393 106.922-85.763 124.054-241.875 38.368-348.745z" horiz-adv-x="1025" />
<glyph unicode="&#xe612;" d="M652.993 760.34c-25.057 24.672-65.348 24.339-90.046-0.692l-354.593-360.389c-24.672-25.057-24.313-65.348 0.718-90.020 12.439-12.208 28.571-18.261 44.702-18.261 16.44 0 32.879 6.335 45.344 19.030l354.593 360.338c24.647 25.083 24.339 65.374-0.718 89.995zM673.716 661.471l-371.212-370.289 555.638-185.785-184.426 556.074zM521.759 278.231c-26.237 0.051-47.549 21.389-47.498 47.6 0 26.288 21.338 47.549 47.6 47.549 26.262-0.026 47.549-21.364 47.549-47.626-0.051-26.237-21.364-47.524-47.652-47.524zM614.19 433.804c-26.262 0.077-47.549 21.364-47.524 47.626 0.026 26.288 21.364 47.575 47.626 47.524 26.288-0.026 47.549-21.364 47.498-47.652 0-26.237-21.312-47.498-47.6-47.498zM717.726 197.264c-26.237 0.077-47.549 21.415-47.524 47.626 0.026 26.288 21.364 47.575 47.6 47.549 26.288-0.051 47.575-21.364 47.524-47.626 0-26.262-21.312-47.549-47.6-47.549z" horiz-adv-x="1025" />
<glyph unicode="&#xe613;" d="M524.067 800.99c-198.224 0-358.953-160.703-358.953-359.004 0-198.25 160.754-358.953 358.953-358.953 198.25 0 359.004 160.703 359.004 358.953 0 198.301-160.729 359.004-359.004 359.004M699.67 345.605c-8.951-17.465-20.646-33.649-34.88-47.78-5.206-5.155-10.72-10.079-16.491-14.593-20.287-15.952-43.548-27.647-68.323-34.444-17.44-4.822-35.598-7.207-53.91-6.925-6.822 0.103-13.593 0.564-20.389 1.385-10.336 1.282-20.594 3.385-30.648 6.258-33.059 9.592-63.604 27.775-88.353 52.986-9.977 10.105-18.697 21.107-26.185 32.751-11.515 17.953-20.184 37.444-26.057 57.885-0.462 1.513-0.898 3.103-1.308 4.668-3.103 11.618-5.283 23.467-6.617 35.495-1.308 12.208-1.641 24.595-1.18 37.034 0.051 1.257 0.128 2.462 0.128 3.719 1.052 17.748 3.693 35.008 7.771 51.653 16.363 66.271 55.295 122.233 101.048 160.934 30.468 26.108 64.963 44.779 98.279 57.628 10.028 3.821 19.876 7.104 29.468 9.977 6.232 1.821 12.362 3.514 18.337 4.95 16.44 4.001 31.802 6.617 45.472 8.13 19.286 2.129 35.11 2.052 45.292 0.385 2.924-0.436 5.36-1 7.258-1.718-66.759-14.414-117.001-73.401-117.001-143.93 0-1.539 0.359-3.36 0.41-4.822 29.34-6.181 54.602-16.106 75.838-29.263 20.389-12.541 36.957-27.981 49.806-45.908 1.026-1.334 1.975-2.77 2.872-4.155 9.515-13.978 16.67-29.391 21.672-46.010 4.924-16.26 7.745-33.649 8.412-51.986 0.077-2.36 0.103-4.668 0.103-7.027 0-30.597-7.181-60.501-20.825-87.276" horiz-adv-x="1025" />
<glyph unicode="&#xe614;" d="M407.682 284.899c-147.341 0-267.214 119.899-267.214 267.24s119.873 267.214 267.214 267.214 267.214-119.873 267.214-267.214c0.026-147.341-119.848-267.24-267.214-267.24zM407.682 793.732c-133.21 0-241.567-108.358-241.567-241.567s108.383-241.593 241.567-241.593 241.567 108.383 241.567 241.593c0.026 133.21-108.358 241.567-241.567 241.567zM549.974 345.974l54.306 54.322 285.138-285.058-54.306-54.322-285.138 285.058z" horiz-adv-x="1025" />
<glyph unicode="&#xe615;" d="M527.914 48.615l-10.797 16.081c-9.771 14.542-239.644 358.235-240.721 510.551-1.128 156.574 87.481 247.466 243.234 249.672l2.77 0.051h2.77c155.599 0 245.491-89.713 246.62-246.132 1.103-152.291-223.743-499.292-233.309-513.988l-10.566-16.234zM522.4 799.425v-0.051c-193.172-1.616-220.973-140.98-220.357-223.897 0.898-126.567 179.322-408.938 225.538-479.98 45.19 71.734 219.485 356.696 218.562 483.211-0.59 82.403-30.084 220.665-220.973 220.665h-2.129l-0.641 0.051zM619.883 565.809c0-54.504-44.185-98.689-98.689-98.689s-98.689 44.185-98.689 98.689c0 54.504 44.185 98.689 98.689 98.689 54.504 0 98.689-44.185 98.689-98.689z" horiz-adv-x="1025" />
<glyph unicode="&#xe616;" d="M153.163 652.238h718.111v-25.647h-718.111v25.647zM153.163 447.064h718.111v-25.647h-718.111v25.647zM153.163 241.889h718.111v-25.647h-718.111v25.647z" horiz-adv-x="1025" />
<glyph unicode="&#xe617;" d="M742.603 635.799l-24.749 24.724-193.736-193.762-193.787 193.762-24.724-24.724 193.762-193.762-193.762-193.762 24.724-24.775 193.787 193.762 193.736-193.762 24.749 24.775-193.787 193.762z" horiz-adv-x="1025" />
<glyph unicode="&#xe618;" d="M540.173 584.428h-62.989v-202.918h165.14v61.681h-102.151zM704.928 660.24c-31.11 24.954-65.81 42.42-101.895 52.704-0.487 0.154-0.975 0.256-1.462 0.385-8.233 2.308-16.568 4.206-24.929 5.771-2.077 0.333-4.18 0.59-6.258 0.923-6.899 1.128-13.798 2.077-20.723 2.693-4.027 0.359-8.104 0.436-12.182 0.616-5.206 0.256-10.387 0.539-15.568 0.539-6.181-0.077-12.285-0.513-18.389-0.923-3.257-0.256-6.514-0.282-9.746-0.59-145.623-15.362-259.084-138.467-259.084-288.142 0-86.019 37.65-163.062 97.201-216.1l-71.452-71.426 44.574-44.574 78.967 78.992c7.463-4.155 15.029-8.079 22.877-11.567 2.308-1.026 4.591-2.154 6.925-3.103 6.463-2.667 13.080-5.001 19.774-7.207 3.539-1.154 7.079-2.257 10.669-3.257 6.181-1.795 12.413-3.462 18.748-4.822 4.463-0.949 8.951-1.616 13.439-2.385 5.719-0.949 11.413-2 17.26-2.642 9.361-0.975 18.748-1.488 28.135-1.539 0.898-0.026 1.77-0.154 2.667-0.154 1.385 0 2.719 0.205 4.129 0.205 9.9 0.205 19.774 0.744 29.571 1.898 1.513 0.205 2.975 0.513 4.488 0.692 9.9 1.359 19.748 3.103 29.468 5.463 1 0.256 2 0.539 2.975 0.744 10.643 2.693 21.159 5.924 31.443 9.823 0 0.026 0.026 0.026 0.026 0.026 10.849 4.129 21.492 8.899 31.853 14.362 0.051-0.051 0.128-0.103 0.18-0.154 1.564 0.821 3.026 1.795 4.591 2.667l78.043-78.043 44.574 44.574-70.324 70.298c8.079 7.13 15.927 14.593 23.185 22.569-0.051 0.205-0.128 0.41-0.205 0.59 3.77 4.18 7.668 8.207 11.259 12.67 100.176 124.874 80.146 307.274-44.805 407.425zM524.4 170.797c-145.648 0-263.7 118.078-263.7 263.726s118.052 263.675 263.7 263.675 263.7-118.052 263.7-263.675c0-145.674-118.052-263.726-263.7-263.726zM732.293 781.909c-28.519 0-54.73-9.335-76.248-24.8 33.802-10.464 66.323-27.109 95.637-50.601 42.907-34.367 73.119-78.556 90.661-126.67 13.234 20.441 21.107 44.728 21.107 70.939 0 72.427-58.731 131.132-131.158 131.132zM296.503 706.507c29.289 23.492 61.809 40.112 95.637 50.601-21.543 15.465-47.729 24.8-76.274 24.8-72.401 0-131.132-58.706-131.132-131.132 0-26.185 7.874-50.499 21.107-70.939 17.542 48.113 47.729 92.303 90.661 126.67z" horiz-adv-x="1025" />
</font>
</defs>
</svg>
